# xmcd
# 
# Track frame offsets:
#     150
#     14557
#     30127
#     45982
#     67137
#     101517
#     127907
#     149427
#     177625
#     197687
#     214872
# 
# Disc length: 3130 seconds
# 
# Revision: 1
# Processed by: cddbd v1.5PL3 Copyright (c) Steve Scherf et al.
# Submitted via: BonkEnc v1.0beta1
# 
DISCID=9a0c380b
DTITLE=Tab Benoit and Jimmy Thackery - Whiskey Store
DYEAR=2002
DGENRE=Blues
TTITLE0=I Ain't Broke
TTITLE1=Whiskey Store
TTITLE2=Away, Away Too Long
TTITLE3=Strange Things Happen
TTITLE4=Nice And Warm
TTITLE5=Leopard-Skin Pill-Box Hat
TTITLE6=Unknown Legend
TTITLE7=Bad Luck Blues
TTITLE8=Freddy's Combo
TTITLE9=The Last Time
TTITLE10=Bone Pickin'
EXTD=YEAR: 2002 ID3G: 0
EXTT0=
EXTT1=
EXTT2=
EXTT3=
EXTT4=
EXTT5=
EXTT6=
EXTT7=
EXTT8=
EXTT9=
EXTT10=
PLAYORDER=
